<svg width="13" height="14" viewBox="0 0 13 14" fill="none" xmlns="http://www.w3.org/2000/svg">
<path fill-rule="evenodd" clip-rule="evenodd" d="M1.70711 0.937608C1.31658 0.547083 0.683417 0.547083 0.292893 0.937608C-0.0976311 1.32813 -0.0976311 1.9613 0.292893 2.35182L5.08579 7.14471L0.582367 11.6481C0.191843 12.0387 0.191843 12.6718 0.582367 13.0623C0.972891 13.4529 1.60606 13.4529 1.99658 13.0623L6.5 8.55893L11.0034 13.0623C11.3939 13.4529 12.0271 13.4529 12.4176 13.0623C12.8082 12.6718 12.8082 12.0387 12.4176 11.6481L7.91421 7.14471L12.7071 2.35182C13.0976 1.9613 13.0976 1.32813 12.7071 0.937608C12.3166 0.547083 11.6834 0.547083 11.2929 0.937608L6.5 5.7305L1.70711 0.937608Z" fill="#3D3935"/>
</svg>
