<svg width="126" height="38" viewBox="0 0 126 38" fill="none" xmlns="http://www.w3.org/2000/svg">
<path d="M0 18.9623C0 3.34684 3.34684 0 18.9623 0C34.5777 0 37.9245 3.34684 37.9245 18.9623C37.9245 34.5777 34.5777 37.9245 18.9623 37.9245C3.34684 37.9245 0 34.5777 0 18.9623Z" fill="#3D3935"/>
<path d="M28.1499 15.4747C27.8174 13.0336 26.7602 11.3515 25.1685 10.7361C24.1945 10.3627 23.0899 10.4038 21.8862 10.8592C20.7459 11.2899 19.5146 12.1064 18.2199 13.2797C18.0853 13.3987 17.9863 13.5464 17.9229 13.7064C17.7645 14.1044 19.3206 15.8111 19.7482 15.647C19.8709 15.5977 19.9857 15.528 20.0887 15.4336C22.0129 13.6859 23.3314 12.9146 24.3846 13.3208C25.4417 13.7269 25.802 14.8962 25.9248 15.7988C26.5741 20.5948 23.47 24.9805 18.9722 26.2113C14.4624 25.001 10.9584 20.2091 11.6077 15.4131C11.8413 13.69 13.0687 11.8028 14.3516 10.8304C15.6305 9.86632 17.23 9.50118 18.8573 9.79657C18.9009 9.80478 19.1662 9.87042 19.2691 9.87042C19.6769 9.87042 20.0055 9.5299 20.0055 9.10732C20.0055 8.96373 19.966 8.82834 19.8986 8.71757C19.8868 8.68885 19.8709 8.66424 19.8511 8.63962C19.8472 8.63552 19.8472 8.63552 19.8432 8.63552C19.7323 8.43449 19.3127 8.32782 19.2453 8.31551C17.0123 7.90934 14.8069 8.42218 13.0331 9.75965C11.2514 11.1053 10.0953 13.1402 9.77456 15.4952C9.37862 18.4245 10.0834 21.4358 11.7622 23.9713C13.429 26.4862 15.8641 28.2463 18.6198 28.9232L18.9167 29.0011L19.2176 28.9519C22.005 28.2832 24.4677 26.5149 26.1505 23.9754C27.8411 21.4317 28.5459 18.4122 28.1499 15.4747Z" fill="white"/>
<path d="M52.0067 27.2169C51.854 27.2169 51.767 27.1296 51.767 26.9764V26.3193C51.767 26.2104 51.7884 26.1003 51.8755 26.0129L57.9393 17.5201H52.3335C52.1808 17.5201 52.0938 17.4112 52.0938 17.258V16.1641C52.0938 16.0109 52.1808 15.9019 52.3335 15.9019H60.165C60.3391 15.9019 60.4262 16.0109 60.4262 16.1641V16.7553C60.4262 16.8642 60.382 16.9743 60.3176 17.0617L54.2097 25.6191H60.2962C60.4488 25.6191 60.5359 25.7065 60.5359 25.8597V26.9764C60.5359 27.1296 60.4488 27.2169 60.2962 27.2169H52.0067Z" fill="#3D3935"/>
<path d="M67.3749 15.6602C70.0586 15.6602 71.7164 17.0833 71.7164 19.9067V26.4738C71.7164 26.6054 71.6508 26.7143 71.5196 26.7586C70.4939 27.1308 68.9457 27.4588 67.3093 27.4588C64.8666 27.4588 62.6195 26.4737 62.6195 23.8694C62.6195 21.5487 64.5171 20.389 67.3093 20.389C68.2039 20.389 69.1855 20.5206 69.9274 20.6511V19.9509C69.9274 18.1784 69.2069 17.2808 67.3093 17.2808C66.088 17.2808 64.9751 17.6314 64.2118 18.091C64.0806 18.1784 63.9721 18.1569 63.885 18.0252L63.2528 17.106C63.1872 16.9744 63.1658 16.887 63.2528 16.7996C64.2774 16.0971 65.6956 15.6602 67.3749 15.6602ZM67.3105 25.8598C68.2921 25.8598 69.2737 25.6623 69.9285 25.466V22.1831C69.2308 22.0514 68.2051 21.9209 67.3105 21.9209C65.3258 21.9209 64.4086 22.6654 64.4086 23.8694C64.4086 25.1812 65.63 25.8598 67.3105 25.8598Z" fill="#3D3935"/>
<path d="M79.4144 15.6602C82.1851 15.6602 84.1484 17.3681 84.1484 20.3004V22.73C84.1484 26.0357 82.1195 27.4587 79.2832 27.4587C77.8865 27.4587 76.3169 27.1739 75.0729 26.6928C74.9202 26.6269 74.8761 26.5396 74.8761 26.4079V11.8076C74.8761 11.6544 74.9632 11.567 75.1158 11.567H76.4028C76.5769 11.567 76.664 11.6544 76.664 11.8076V16.3388C77.4285 15.9439 78.3887 15.6602 79.4144 15.6602ZM82.3378 22.73V20.3004C82.3378 18.1987 81.225 17.258 79.2618 17.258C78.2587 17.258 77.3641 17.5644 76.6664 18.0455V25.4444C77.3427 25.7078 78.3028 25.861 79.2403 25.861C81.1809 25.8598 82.3378 25.0064 82.3378 22.73Z" fill="#3D3935"/>
<path d="M104.069 25.795C104.309 25.795 104.724 25.7734 105.116 25.7507C105.291 25.7507 105.378 25.8381 105.378 25.9913V27.151C105.378 27.2827 105.312 27.3916 105.159 27.4131C104.767 27.4347 104.265 27.4574 103.981 27.4574C101.799 27.4574 100.186 26.2749 100.186 23.5832V13.3825C100.186 13.2078 100.273 13.1204 100.447 13.1204H101.581C101.712 13.1204 101.799 13.2078 101.821 13.361L101.974 16.0096H104.81C104.963 16.0096 105.05 16.0969 105.05 16.2501V17.3441C105.05 17.5188 104.963 17.6074 104.81 17.6074H101.974V23.4958C101.975 24.9404 102.717 25.795 104.069 25.795Z" fill="#3D3935"/>
<path d="M111.74 15.6602C114.424 15.6602 116.081 17.0833 116.081 19.9067V26.4738C116.081 26.6054 116.016 26.7143 115.885 26.7586C114.859 27.1308 113.311 27.4588 111.674 27.4588C109.232 27.4588 106.984 26.4737 106.984 23.8694C106.984 21.5487 108.882 20.389 111.674 20.389C112.569 20.389 113.55 20.5206 114.292 20.6511V19.9509C114.292 18.1784 113.572 17.2808 111.674 17.2808C110.453 17.2808 109.34 17.6314 108.577 18.091C108.446 18.1784 108.337 18.1569 108.25 18.0252L107.618 17.106C107.552 16.9744 107.531 16.887 107.618 16.7996C108.642 16.0971 110.061 15.6602 111.74 15.6602ZM111.674 25.8598C112.656 25.8598 113.638 25.6623 114.292 25.466V22.1831C113.595 22.0514 112.569 21.9209 111.674 21.9209C109.69 21.9209 108.772 22.6654 108.772 23.8694C108.774 25.1812 109.995 25.8598 111.674 25.8598Z" fill="#3D3935"/>
<path d="M118.621 18.6642C118.58 18.6642 118.556 18.6402 118.556 18.5995V18.359C118.556 18.3291 118.562 18.3003 118.591 18.2764L119.731 17.0736C120.281 16.4931 120.702 16.0239 120.702 15.5428C120.702 15.2089 120.492 14.8618 119.959 14.8618C119.485 14.8618 119.175 15.1084 118.929 15.3776C118.901 15.4124 118.865 15.4064 118.836 15.3776L118.649 15.1191C118.625 15.0892 118.625 15.0545 118.649 15.0258C118.929 14.7086 119.334 14.4034 119.953 14.4034C120.684 14.4034 121.192 14.8319 121.192 15.5356C121.192 16.1341 120.795 16.6212 120.163 17.3129C119.958 17.5415 119.659 17.8647 119.303 18.2106H121.215C121.255 18.2106 121.279 18.2345 121.279 18.2812V18.5984C121.279 18.6391 121.255 18.663 121.215 18.663H118.621V18.6642ZM122.24 18.6941C122.047 18.6941 121.918 18.5589 121.918 18.371C121.918 18.1771 122.047 18.0418 122.24 18.0418C122.428 18.0418 122.563 18.1771 122.563 18.371C122.561 18.5589 122.428 18.6941 122.24 18.6941ZM124.608 18.7288C123.889 18.7288 123.205 18.3063 123.205 17.3441V15.7774C123.205 14.8211 123.89 14.4046 124.608 14.4046C125.321 14.4046 126 14.8211 126 15.7774V17.3441C126 18.3063 125.321 18.7288 124.608 18.7288ZM124.608 18.2596C125.076 18.2596 125.515 18.0131 125.515 17.362V15.7953C125.515 15.1203 125.082 14.8738 124.608 14.8738C124.129 14.8738 123.69 15.1203 123.69 15.7953V17.362C123.691 18.0131 124.135 18.2596 124.608 18.2596Z" fill="#3D3935"/>
<path d="M92.1754 27.6848C88.7988 27.6848 86.1545 24.9668 86.1545 21.4984C86.1545 18.0287 88.7988 15.3119 92.1754 15.3119C95.552 15.3119 98.1963 18.0299 98.1963 21.4984C98.1951 24.9668 95.5509 27.6848 92.1754 27.6848ZM92.1754 17.0581C89.7757 17.0581 87.8959 19.0077 87.8959 21.4984C87.8959 23.9878 89.7757 25.9386 92.1754 25.9386C94.5752 25.9386 96.4549 23.989 96.4549 21.4984C96.4549 19.0077 94.5752 17.0581 92.1754 17.0581Z" fill="#3D3935"/>
</svg>
